<?xml version="1.0" encoding="UTF-8"?>
<svg id="_レイヤー_1" data-name="レイヤー 1" xmlns="http://www.w3.org/2000/svg" viewBox="0 380 1920 950">
  <defs>
    <style>
      .cls-1 {
        fill: #0071bc;
      }

      .cls-2, .cls-3, .cls-4 {
        fill: #4d4d4d;
      }

      .cls-5 {
        fill: #fff;
      }

      .cls-6 {
        fill: #666;
      }

      .cls-3 {
        font-size: 56.6px;
        letter-spacing: .07em;
      }

      .cls-3, .cls-4 {
        font-family: AB-hanamaki-90ms-RKSJ-H, AB-hanamaki;
      }

      .cls-4 {
        font-size: 33.14px;
        letter-spacing: .07em;
      }
    </style>
  </defs>
  <text class="cls-3" transform="translate(1123.94 737.59)"><tspan x="0" y="0">Kamata</tspan><tspan x="0" y="50.27">Cloud</tspan><tspan x="0" y="100.54">Infrastructure</tspan></text>
  <g>
    <path class="cls-2" d="M1336.83,1201.72c-7.22-11.58-15.72-24.11-25.51-37.56-9.79-13.45-20.34-27.02-31.65-40.69-11.31-13.66-23.14-26.77-35.5-39.31-12.36-12.54-24.72-23.62-37.07-33.23v150.79h-80.14v-356.02h80.14v133.8c20.61-21.64,41.54-44.28,62.8-67.91,21.26-23.62,40.89-45.59,58.89-65.9h95.11c-24.23,28.86-48.6,56.6-73.12,83.23-24.51,26.63-50.32,53.43-77.41,80.4,28.48,23.76,55.96,51.94,82.42,84.54,26.46,32.61,51.9,68.56,76.33,107.85h-95.28Z"/>
    <path class="cls-2" d="M1611.36,1203.91c-55.78,0-98.28-15.51-127.49-46.54-29.21-31.02-43.82-75.08-43.82-132.19,0-28.38,4.46-53.72,13.37-76,8.91-22.28,21.12-41.09,36.64-56.44,15.51-15.35,33.99-26.98,55.45-34.9,21.45-7.92,44.72-11.88,69.81-11.88,14.52,0,27.73,1.08,39.61,3.22,11.88,2.15,22.28,4.63,31.19,7.43,8.91,2.81,16.34,5.69,22.28,8.66s10.23,5.28,12.87,6.93l-22.28,62.38c-10.57-5.61-22.86-10.4-36.88-14.36-14.03-3.96-29.95-5.94-47.78-5.94-11.88,0-23.52,1.98-34.9,5.94-11.39,3.96-21.46,10.32-30.2,19.06-8.75,8.75-15.77,20.05-21.04,33.91-5.28,13.86-7.92,30.7-7.92,50.5,0,15.84,1.73,30.62,5.2,44.31,3.47,13.7,9.07,25.5,16.83,35.4,7.75,9.9,17.9,17.75,30.45,23.52,12.54,5.78,27.72,8.66,45.55,8.66,11.22,0,21.29-.66,30.2-1.98,8.91-1.31,16.83-2.89,23.76-4.7,6.93-1.81,13.04-3.88,18.32-6.19,5.28-2.31,10.06-4.46,14.36-6.44l21.29,61.89c-10.89,6.61-26.24,12.55-46.04,17.82-19.8,5.28-42.75,7.92-68.82,7.92Z"/>
    <path class="cls-2" d="M1782.99,845.7h80.14v356.02h-80.14v-356.02Z"/>
  </g>
  <text class="cls-4" transform="translate(1191.96 1242.63)"><tspan x="0" y="0">Nihon engineering college IS-16</tspan></text>
  <g>
    <path class="cls-5" d="M227.7,1233.96c-102.9,0-186.62-83.72-186.62-186.62,0-78.75,49.82-149.42,123.98-175.83l11.15-3.97-3.04-11.44c-5.34-20.1-8.04-40.9-8.04-61.82,0-64.16,24.99-124.48,70.35-169.85,45.37-45.37,105.69-70.35,169.85-70.35,56.8,0,111.92,20.2,155.21,56.89l10.29,8.72,8.22-10.69c22.65-29.47,52.12-53.86,85.21-70.53,34.69-17.48,72.12-26.34,111.25-26.34,66.15,0,128.34,25.76,175.11,72.53,46.78,46.77,72.54,108.97,72.54,175.11,0,1.92-.03,3.9-.08,6.07l-.51,21.12,6.62-3.23c-21.36,45.43-35.01,95.54-39.87,146.89-10.68,112.94,21.14,222.89,87.48,303.33H227.7Z"/>
    <path class="cls-1" d="M775.51,524.98c31.71,0,62.45,6.2,91.38,18.44,27.96,11.82,53.07,28.76,74.64,50.33,21.57,21.57,38.5,46.68,50.33,74.64,12.24,28.93,18.44,59.68,18.44,91.39,0,1.82-.02,3.7-.07,5.77l-.74,30.97c-17.37,41.79-28.61,86.87-32.96,132.9-10.1,106.77,16.78,211.05,74.24,291.69H227.7c-46.41,0-90.05-18.07-122.87-50.89-32.82-32.82-50.89-76.46-50.89-122.87,0-36.58,11.23-71.56,32.48-101.17,20.82-29.01,49.51-50.64,82.96-62.56l22.29-7.94-6.07-22.87c-5.05-19.02-7.61-38.71-7.61-58.52,0-30.7,6.01-60.48,17.86-88.49,11.45-27.07,27.85-51.39,48.73-72.27,20.89-20.89,45.2-37.28,72.27-48.73,28.01-11.85,57.78-17.86,88.49-17.86,27.4,0,54.18,4.82,79.59,14.32,24.55,9.18,47.2,22.48,67.3,39.52l20.57,17.44,16.43-21.38c21.49-27.95,49.42-51.08,80.8-66.89,32.88-16.57,68.36-24.96,105.46-24.96M775.51,499.27c-84.18,0-159.02,39.94-206.65,101.89-44.11-37.38-101.17-59.94-163.52-59.94-139.76,0-253.06,113.3-253.06,253.06,0,22.52,2.96,44.34,8.47,65.12-77.23,27.51-132.52,101.27-132.52,187.94,0,110.17,89.31,199.47,199.47,199.47h872.95c-2.73-4.59-5.36-9.23-7.91-13.93-65.55-75.25-101.69-184.04-90.63-301.05,6.13-64.78,26-124.37,55.84-175.12-7.51,2.81-14.87,5.95-22.02,9.44.05-2.12.08-4.25.08-6.38,0-143.87-116.63-260.5-260.5-260.5h0Z"/>
  </g>
  <g>
    <path class="cls-5" d="M448.67,1233.96c-98.57,0-178.76-80.19-178.76-178.76s80.19-178.76,178.76-178.76c26.4,0,51.83,5.63,75.59,16.73l20.04,9.37-1.78-22.05c-.46-5.67-.69-11.36-.69-16.9,0-113.88,92.65-206.53,206.53-206.53,35.86,0,71.18,9.34,102.15,27l11.34,6.47,6.29-11.43c51.79-94.1,150.6-152.55,257.87-152.55,59.12,0,116.66,17.84,165.14,50.74-157.2,21.04-284.17,166.73-301.83,353.35-10.63,112.37,21.84,223.52,87.5,303.33H448.67Z"/>
    <path class="cls-6" d="M1126.01,539.39c34.19,0,67.58,6.06,99.25,18.02,10.42,3.93,20.57,8.47,30.4,13.58-147.18,36.66-262.19,179.28-279.14,358.43-10.04,106.18,17.36,211.39,74.32,291.69H448.67c-44.32,0-85.98-17.26-117.31-48.59-31.34-31.34-48.59-73-48.59-117.31s17.26-85.98,48.59-117.31c31.34-31.34,73-48.59,117.31-48.59,24.51,0,48.11,5.22,70.15,15.52l40.08,18.73-3.57-44.1c-.43-5.33-.65-10.67-.65-15.87,0-51.73,20.15-100.37,56.73-136.95,36.58-36.58,85.22-56.73,136.95-56.73,33.63,0,66.75,8.75,95.78,25.31l22.67,12.93,12.58-22.87c23.9-43.43,58.97-79.93,101.43-105.58,43.67-26.37,93.87-40.31,145.18-40.31M1126.01,513.68c-115.97,0-216.91,64.31-269.14,159.21-32-18.25-69.04-28.69-108.52-28.69-121.16,0-219.39,98.22-219.39,219.39,0,6.04.26,12.02.73,17.94-24.61-11.5-52.07-17.94-81.03-17.94-105.83,0-191.62,85.79-191.62,191.62s85.79,191.62,191.62,191.62h656.91c-73.61-75.39-115.24-190.53-103.47-314.98,18.36-194.08,160.05-341.58,323.61-344.28-53.68-46.05-123.44-73.88-199.72-73.88h0Z"/>
  </g>
</svg>